# AST/ASF file generated using VICON BodyLanguage
# -----------------------------------------------
:version 1.10
:name VICON
:units
  mass 1.0
  length 0.45
  angle deg
:documentation
   .ast/.asf automatically generated from VICON data using
   VICON BodyBuilder and BodyLanguage model FoxedUp or BRILLIANT.MOD
:root
   order TX TY TZ RX RY RZ
   axis XYZ
   position 0 0 0  
   orientation 0 0 0 
:bonedata
  begin
     id 1 
     name lhipjoint
     direction 0.598477 -0.721498 0.348234 
     length 2.38516 
     axis 0 0 0  XYZ
  end
  begin
     id 2 
     name lfemur
     direction 0.34202 -0.939693 0  
     length 6.81097  
     axis 0 0 20  XYZ
    dof rx ry rz
    limits (-160.0 20.0)
           (-70.0 70.0)
           (-60.0 70.0)
  end
  begin
     id 3 
     name ltibia
     direction 0.34202 -0.939693 0   
     length 7.43697   
     axis 0 0 20   XYZ
    dof rx
    limits (-10.0 170.0)
  end
  begin
     id 4 
     name lfoot
     direction 0.0644912 -0.177188 0.982062   
     length 2.0384   
     axis -90 7.62852e-016 20   XYZ
    dof rx rz
    limits (-45.0 90.0)
           (-70.0 20.0)
  end
  begin
     id 5 
     name ltoes
     direction 1.53517e-011 -4.21905e-011 1   
     length 1.02854   
     axis -90 7.62852e-016 20   XYZ
    dof rx
    limits (-90.0 20.0)
  end
  begin
     id 6 
     name rhipjoint
     direction -0.591517 -0.726138 0.350474   
     length 2.36992  
     axis 0 0 0  XYZ 
  end
  begin
     id 7 
     name rfemur
     direction -0.34202 -0.939693 0   
     length 6.93503   
     axis 0 0 -20   XYZ
    dof rx ry rz
    limits (-160.0 20.0)
           (-70.0 70.0)
           (-70.0 60.0)
  end
  begin
     id 8 
     name rtibia
     direction -0.34202 -0.939693 0   
     length 7.45107   
     axis 0 0 -20   XYZ
    dof rx
    limits (-10.0 170.0)
 end
 begin
     id 9 
     name rfoot
     direction -0.0677555 -0.186157 0.980181   
     length 1.90244  
     axis -90 -7.62852e-016 -20   XYZ
    dof rx rz
    limits (-45.0 90.0)
           (-20.0 70.0)
  end
  begin
     id 10 
     name rtoes
     direction -1.53409e-011 -4.21428e-011 1   
     length 0.961454   
     axis -90 -7.62852e-016 -20   XYZ
    dof rx
    limits (-90.0 20.0)
  end
  begin
     id 11 
     name lowerback
     direction -0.0289484 0.992437 0.119291   
     length 1.96261   
     axis 0 0 0   XYZ
    dof rx ry rz
    limits (-20.0 45.0)
           (-30.0 30.0)
           (-30.0 30.0)
  end
  begin
     id 12 
     name upperback
     direction 0.0109352 0.999834 0.0146028   
     length 1.96894   
     axis 0 0 0   XYZ
    dof rx ry rz
    limits (-20.0 45.0)
           (-30.0 30.0)
           (-30.0 30.0)
  end
  begin
     id 13 
     name thorax
     direction 0.0232227 0.998895 -0.0408582   
     length 2.00029   
     axis 0 0 0   XYZ
    dof rx ry rz
    limits (-20.0 45.0)
           (-30.0 30.0)
           (-30.0 30.0)
  end
  begin
     id 14 
     name lowerneck
     direction -0.00291659 0.999583 0.0287188   
     length 1.72722   
     axis 0 0 0   XYZ
    dof rx ry rz
    limits (-20.0 45.0)
           (-30.0 30.0)
           (-30.0 30.0)
  end
  begin
     id 15 
     name upperneck
     direction 0.0277639 0.998467 -0.0478817   
     length 1.68525   
     axis 0 0 0   XYZ
    dof rx ry rz
    limits (-20.0 45.0)
           (-30.0 30.0)
           (-30.0 30.0)
  end
  begin
     id 16
     name head
     direction 0.00895921 0.999741 -0.020943  
     length 1.78934  
     axis 0 0 0   XYZ
    dof rx ry rz
    limits (-20.0 45.0)
           (-30.0 30.0)
           (-30.0 30.0)
  end
  begin
     id 17 
     name lclavicle
     direction 0.907972 0.393865 -0.143029  
     length 3.37543  
     axis 0 0 0   XYZ
    dof ry rz
    limits (-20.0 10.0)
           (0.0 20.0)
  end
  begin
     id 18 
     name lhumerus
     direction 1 -4.48915e-011 -1.10425e-027   
     length 4.94762   
     axis -180 -30 -90   XYZ
    dof rx ry rz
    limits (-60.0 90.0)
           (-90.0 90.0)
           (-90.0 90.0)
  end
  begin
     id 19
     name lradius
     direction 1 1.63657e-005 -9.44877e-006   
     length 3.11144   
     axis -180 -30 -90   XYZ
    dof rx
    limits (-10.0 170.0)
  end
  begin
     id 20
     name lwrist
     direction 1 -5.04565e-007 -1.8883e-005   
     length 1.55572   
     axis 1.22104e-015 90 90   XYZ
    dof ry
    limits (-180.0 0.0)
 end
  begin
     id 21 
     name lhand
     direction 1 -4.48949e-011 -2.20333e-027   
     length 0.686387   
     axis 1.40591e-015 90 90   XYZ
    dof rx rz
    limits (-90.0 90.0)
           (-45.0 45.0)
  end
  begin
     id 22 
     name lfingers
     direction 1 -4.49191e-011 -4.40665e-027   
     length 0.553383   
     axis 2.81182e-015 90 90   XYZ
    dof rx
    limits (0.0 90.0)
  end
  begin
     id 23
     name lthumb
     direction 0.707107 -6.35116e-011 0.707107   
     length 0.79455   
     axis -90 45 2.85299e-015   XYZ
    dof rx rz
    limits (-45.0 45.0)
           (-45.0 45.0)
  end
  begin
     id 24 
     name rclavicle
     direction -0.947168 0.319303 -0.0302977   
     length 3.53547  
     axis 0 0 0   XYZ 
    dof ry rz
    limits (-10.0 20.0)
           (-20.0 0.0)
  end
  begin
     id 25 
     name rhumerus
     direction -1 -0.000401632 0.000196042  
     length 4.77566   
     axis -180 30 90   XYZ
    dof rx ry rz
    limits (-90.0 60.0)
           (-90.0 90.0)
           (-90.0 90.0)
  end
  begin
     id 26 
     name rradius
     direction -1 -4.49012e-011 -4.87197e-027   
     length 3.21433   
     axis -180 30 90   XYZ
    dof rx
    limits (-10.0 170.0)
  end
  begin
     id 27 
     name rwrist
     direction -1 -4.48899e-011 -5.86351e-027   
     length 1.60716   
     axis 3.17445e-015 -90 -90   XYZ
    dof ry
    limits (-180.0 0.0)
  end
  begin
     id 28
     name rhand
     direction -0.999958 0.00678358 -0.00613214   
     length 0.625487   
     axis 7.48284e-015 -90 -90   XYZ
    dof rx rz
    limits (-90.0 90.0)
           (-45.0 45.0)
  end
  begin
     id 29
     name rfingers
     direction -1 -4.48756e-011 -2.3454e-026   
     length 0.505648   
     axis 1.49657e-014 -90 -90   XYZ
    dof rx
    limits (0.0 90.0)
  end
  begin
     id 30
     name rthumb
     direction -0.708559 0.00587598 0.705627   
     length 0.722099   
     axis -90 -45 -2.85299e-015   XYZ
    dof rx rz
    limits (-45.0 45.0)
           (-45.0 45.0)
  end
:hierarchy
  begin
    root lhipjoint rhipjoint lowerback
    lhipjoint lfemur
    lfemur ltibia
    ltibia lfoot
    lfoot ltoes
    rhipjoint rfemur
    rfemur rtibia
    rtibia rfoot
    rfoot rtoes
    lowerback upperback
    upperback thorax
    thorax lowerneck lclavicle rclavicle
    lowerneck upperneck
    upperneck head
    lclavicle lhumerus
    lhumerus lradius
    lradius lwrist
    lwrist lhand lthumb
    lhand lfingers
    rclavicle rhumerus
    rhumerus rradius
    rradius rwrist
    rwrist rhand rthumb
    rhand rfingers
  end

#!OML:ASF C:\Documents and Settings\Administrator\Desktop\SteveTeapot.ASF
:FULLY-SPECIFIED
:DEGREES
708
root 0.228926 16.5314 -7.3025 20.1495 -2.37322 1.51989
lowerback -14.6629 0.126227 -4.11567
upperback -3.66282 0.756967 0.431963
thorax 4.27563 0.343193 2.91985
lowerneck -7.39684 -1.27221 -1.85106
upperneck 9.86717 -1.00042 -4.48831
head 4.60308 -0.798922 -1.25925
rclavicle 8.07563e-015 1.72943e-014
rhumerus -93.3585 35.5595 -106.761
rradius 103.997
rwrist -70.5931
rhand 0.658868 -52.4547
rfingers 7.12502
rthumb 26.2213 -80.6632
lclavicle 8.07563e-015 1.72943e-014
lhumerus -27.04 10.3481 -3.97495
lradius 53.454
lwrist 13.7896
lhand -26.8398 -10.695
lfingers 7.12502
lthumb -0.265358 19.2846
rfemur -32.5285 -8.0835 20.6848
rtibia 36.6977
rfoot -26.8511 3.7055
rtoes -12.6725
lfemur -32.0346 4.67256 -23.0487
ltibia 34.8331
lfoot -20.5386 6.21417
ltoes -14.1324
709
root 0.227181 16.5312 -7.31721 20.148 -2.36883 1.42065
lowerback -14.5044 0.158631 -4.0549
upperback -3.6578 0.784638 0.418267
thorax 4.19405 0.359181 2.87338
lowerneck -7.38837 -1.31667 -1.78731
upperneck 10.0005 -1.04682 -4.62958
head 4.64912 -0.829156 -1.32451
rclavicle 3.47873e-016 5.76476e-015
rhumerus -93.4272 35.4664 -106.82
rradius 104.013
rwrist -70.5581
rhand 0.346757 -51.664
rfingers 7.12502
rthumb 25.9225 -79.9167
lclavicle 3.47873e-016 5.76476e-015
lhumerus -25.7733 11.6935 -5.14824
lradius 50.762
lwrist 12.6338
lhand -26.6492 -11.411
lfingers 7.12502
lthumb -0.0812736 18.5687
rfemur -32.5717 -8.00572 20.7932
rtibia 36.7246
rfoot -26.7732 3.76466
rtoes -11.9228
lfemur -32.0953 4.56581 -22.9057
ltibia 34.8546
lfoot -20.5072 6.28774
ltoes -13.8193
710
root 0.222887 16.5286 -7.32906 20.1824 -2.54914 1.41368
lowerback -14.4586 0.178463 -4.17971
upperback -3.64847 0.828404 0.394427
thorax 4.1738 0.380239 2.92596
lowerneck -7.14665 -1.34365 -1.75213
upperneck 9.88162 -1.09191 -4.71553
head 4.55487 -0.849313 -1.35712
rclavicle -3.8266e-015 2.98177e-015
rhumerus -93.4868 35.4537 -106.855
rradius 104.045
rwrist -70.517
rhand 0.397378 -51.1713
rfingers 7.12502
rthumb 25.9709 -79.4168
lclavicle -3.8266e-015 2.98177e-015
lhumerus -24.648 13.1461 -6.31823
lradius 48.1512
lwrist 11.3193
lhand -26.3556 -11.9165
lfingers 7.12502
lthumb 0.202278 18.0631
rfemur -32.7032 -7.73699 20.7495
rtibia 36.7672
rfoot -26.6784 3.60656
rtoes -12.2741
lfemur -32.1614 4.49818 -22.8912
ltibia 34.8641
lfoot -20.4724 6.54638
ltoes -14.1276
711
root 0.218183 16.5283 -7.33215 20.1446 -2.64785 1.46215
lowerback -14.4645 0.162949 -4.35131
upperback -3.59934 0.835537 0.371356
thorax 4.22565 0.380438 3.00071
lowerneck -7.0676 -1.33905 -1.88852
upperneck 9.90647 -1.07688 -4.66773
head 4.54888 -0.844292 -1.31462
rclavicle 1.73937e-016 -8.94531e-016
rhumerus -93.5132 35.4893 -106.926
rradius 104.046
rwrist -70.5115
rhand 0.375103 -51.0492
rfingers 7.12502
rthumb 25.9496 -79.2978
lclavicle 1.73937e-016 -8.94531e-016
lhumerus -23.466 14.8383 -7.35967
lradius 45.5036
lwrist 9.69239
lhand -26.0074 -12.0876
lfingers 7.12502
lthumb 0.538575 17.8914
rfemur -32.7234 -7.65269 20.6764
rtibia 36.7936
rfoot -26.6915 3.52704
rtoes -12.5971
lfemur -32.1391 4.40204 -22.9147
ltibia 34.8933
lfoot -20.4209 6.68167
ltoes -13.8988
712
root 0.213172 16.5285 -7.33977 20.1352 -2.59962 1.46179
lowerback -14.4183 0.112309 -4.50478
upperback -3.55658 0.787675 0.415201
thorax 4.24638 0.354346 3.12525
lowerneck -7.14493 -1.3289 -2.07643
upperneck 10.0656 -1.03265 -4.65472
head 4.625 -0.833326 -1.27794
rclavicle 7.29291e-015 -1.2921e-015
rhumerus -93.4191 35.614 -106.856
rradius 103.981
rwrist -70.558
rhand 0.353291 -51.1067
rfingers 7.12502
rthumb 25.9287 -79.3584
lclavicle 7.29291e-015 -1.2921e-015
lhumerus -22.3934 16.7547 -8.2442
lradius 42.9309
lwrist 7.74537
lhand -25.7131 -12.4388
lfingers 7.12502
lthumb 0.822873 17.5394
rfemur -32.7487 -7.68886 20.7243
rtibia 36.8216
rfoot -26.7001 3.45359
rtoes -12.5056
lfemur -32.1819 4.40079 -22.8882
ltibia 34.9191
lfoot -20.3856 6.57914
ltoes -13.539
713
root 0.208538 16.5264 -7.34953 20.1259 -2.58061 1.27557
lowerback -14.3276 0.109506 -4.45567
upperback -3.54912 0.769278 0.47856
thorax 4.20644 0.346438 3.1597
lowerneck -7.2042 -1.33001 -2.0764
upperneck 10.7056 -0.979911 -4.9011
head 4.37858 -0.845091 -1.22401
rclavicle 5.42931e-015 -3.08116e-015
rhumerus -93.3676 35.7091 -106.835
rradius 103.931
rwrist -70.6107
rhand 0.305426 -51.4995
rfingers 7.12502
rthumb 25.8829 -79.7579
lclavicle 5.42931e-015 -3.08116e-015
lhumerus -21.4792 18.5875 -9.13227
lradius 40.4915
lwrist 5.76957
lhand -25.3954 -13.1128
lfingers 7.12502
lthumb 1.12969 16.8639
rfemur -32.7535 -7.44492 20.9093
rtibia 36.8208
rfoot -26.6398 3.27097
rtoes -12.2662
lfemur -32.2136 4.52711 -22.6947
ltibia 34.9616
lfoot -20.3981 6.62925
ltoes -13.9369
714
root 0.207837 16.5272 -7.35644 20.1423 -2.49713 1.25455
lowerback -14.3326 0.0776179 -4.48126
upperback -3.55867 0.731763 0.461751
thorax 4.20214 0.328017 3.1499
lowerneck -6.9771 -1.3475 -1.95356
upperneck 10.7618 -1.0045 -5.071
head 4.35546 -0.860226 -1.29601
rclavicle -3.04389e-015 -1.04362e-014
rhumerus -93.3685 35.6576 -106.842
rradius 103.873
rwrist -70.5603
rhand 0.417922 -51.7179
rfingers 7.12502
rthumb 25.9906 -79.9605
lclavicle -3.04389e-015 -1.04362e-014
lhumerus -20.5381 20.4607 -10.0336
lradius 38.0612
lwrist 3.65809
lhand -25.0412 -14.0866
lfingers 7.12502
lthumb 1.47178 15.8881
rfemur -32.7721 -7.45734 20.9516
rtibia 36.798
rfoot -26.5863 3.29743
rtoes -12.0406
lfemur -32.2903 4.53313 -22.6708
ltibia 35.0163
lfoot -20.3567 6.67511
ltoes -14.5135
715
root 0.209447 16.5307 -7.36888 20.1618 -2.31172 1.24827
lowerback -14.266 0.0266688 -4.47631
upperback -3.53741 0.661543 0.451497
thorax 4.19466 0.293222 3.12324
lowerneck -6.81231 -1.38714 -1.91236
upperneck 10.346 -1.0873 -5.03956
head 4.65767 -0.875624 -1.44355
rclavicle -1.35174e-014 1.98785e-016
rhumerus -93.3035 35.6937 -106.812
rradius 103.809
rwrist -70.5642
rhand 0.410961 -51.661
rfingers 7.12502
rthumb 25.9839 -79.9046
lclavicle -1.35174e-014 1.98785e-016
lhumerus -19.5876 22.2708 -10.8104
lradius 35.677
lwrist 1.29524
lhand -25.4649 -14.2346
lfingers 7.12502
lthumb 1.06251 15.7425
rfemur -32.8022 -7.72649 21.0465
rtibia 36.7702
rfoot -26.5478 3.55104
rtoes -11.5568
lfemur -32.3987 4.37962 -22.6108
ltibia 35.0601
lfoot -20.3245 6.60379
ltoes -14.4491
716
root 0.210475 16.5328 -7.38014 20.0838 -2.12845 1.06967
lowerback -14.1013 0.016757 -4.30388
upperback -3.42152 0.615723 0.502279
thorax 4.23322 0.268929 3.06983
lowerneck -7.23692 -1.44777 -2.11442
upperneck 11.0382 -1.09454 -5.09182
head 4.48386 -0.922055 -1.28649
rclavicle 4.34841e-016 7.95139e-015
rhumerus -93.0577 35.8013 -106.713
rradius 103.699
rwrist -70.6344
rhand 0.380708 -51.4991
rfingers 7.12502
rthumb 25.955 -79.7469
lclavicle 4.34841e-016 7.95139e-015
lhumerus -18.7019 24.1943 -11.4282
lradius 33.4723
lwrist -1.30384
lhand -26.2041 -13.35
lfingers 7.12502
lthumb 0.348592 16.6294
rfemur -32.7137 -7.93007 21.3055
rtibia 36.7448
rfoot -26.5437 3.75362
rtoes -11.2878
lfemur -32.3691 4.31262 -22.3704
ltibia 35.0825
lfoot -20.3519 6.54769
ltoes -14.2035
717
root 0.207739 16.5332 -7.38681 19.9989 -2.12673 1.03526
lowerback -13.9663 0.0366962 -4.36649
upperback -3.31186 0.647585 0.493947
thorax 4.27203 0.281371 3.10108
lowerneck -7.87553 -1.51518 -2.3531
upperneck 11.5755 -1.12419 -4.91868
head 4.75957 -0.95732 -1.20752
rclavicle -7.14382e-015 -5.1684e-015
rhumerus -92.8095 35.8313 -106.577
rradius 103.639
rwrist -70.621
rhand 0.498157 -51.4643
rfingers 7.12502
rthumb 26.0674 -79.6956
lclavicle -7.14382e-015 -5.1684e-015
lhumerus -17.8175 26.4294 -12.0893
lradius 31.2664
lwrist -3.90263
lhand -26.2889 -13.249
lfingers 7.12502
lthumb 0.266696 16.7306
rfemur -32.6254 -7.83017 21.3255
rtibia 36.7325
rfoot -26.5456 3.62503
rtoes -11.1729
lfemur -32.3086 4.231 -22.2903
ltibia 35.0798
lfoot -20.3268 6.58907
ltoes -13.9666
718
root 0.208283 16.5327 -7.39187 19.9287 -2.10533 1.02433
lowerback -13.9606 0.0407815 -4.4088
upperback -3.16174 0.663087 0.475155
thorax 4.42575 0.282287 3.10922
lowerneck -8.02144 -1.54356 -2.35625
upperneck 11.5772 -1.1544 -4.92854
head 4.78431 -0.974713 -1.2135
rclavicle 1.21756e-014 -1.88845e-015
rhumerus -92.5079 35.8479 -106.304
rradius 103.696
rwrist -70.5792
rhand 0.640033 -51.8059
rfingers 7.12502
rthumb 26.2033 -80.0171
lclavicle 1.21756e-014 -1.88845e-015
lhumerus -17.0267 29.0045 -12.7697
lradius 29.075
lwrist -6.67063
lhand -26.1321 -13.8415
lfingers 7.12502
lthumb 0.418172 16.1378
rfemur -32.549 -7.83317 21.334
rtibia 36.7194
rfoot -26.5307 3.56673
rtoes -10.8731
lfemur -32.2385 4.13646 -22.2445
ltibia 35.0674
lfoot -20.2988 6.68825
ltoes -14.1435
719
root 0.209141 16.532 -7.3961 19.8788 -2.08365 1.01091
lowerback -14.0601 0.0514488 -4.44321
upperback -3.01272 0.690002 0.482182
thorax 4.63464 0.287368 3.14376
lowerneck -7.82807 -1.54328 -2.3609
upperneck 11.2889 -1.16412 -5.02006
head 4.66232 -0.975794 -1.23689
rclavicle -1.35422e-015 -6.36111e-015
rhumerus -92.2791 35.806 -106.01
rradius 103.769
rwrist -70.5448
rhand 0.658262 -52.1177
rfingers 7.12502
rthumb 26.2207 -80.3264
lclavicle -1.35422e-015 -6.36111e-015
lhumerus -16.4296 31.2871 -13.3393
lradius 27.2464
lwrist -9.24607
lhand -25.9179 -13.7242
lfingers 7.12502
lthumb 0.625083 16.2546
rfemur -32.5314 -7.91795 21.3691
rtibia 36.7275
rfoot -26.5246 3.63207
rtoes -10.4183
lfemur -32.18 4.09876 -22.2236
ltibia 35.0277
lfoot -20.2553 6.77596
ltoes -14.4089
720
root 0.206224 16.5325 -7.40571 19.8828 -2.26841 1.08592
lowerback -14.0482 0.0768084 -4.63019
upperback -2.98977 0.752365 0.451678
thorax 4.64459 0.315378 3.2285
lowerneck -7.74517 -1.49487 -2.47474
upperneck 11.2732 -1.09756 -4.94672
head 4.64599 -0.94203 -1.19061
rclavicle 9.61621e-015 -9.93923e-016
rhumerus -92.2511 35.8188 -105.918
rradius 103.894
rwrist -70.5239
rhand 0.668113 -52.6495
rfingers 7.12502
rthumb 26.2302 -80.8567
lclavicle 9.61621e-015 -9.93923e-016
lhumerus -16.0371 33.3537 -14.0133
lradius 25.6255
lwrist -11.625
lhand -25.7566 -13.3875
lfingers 7.12502
lthumb 0.78087 16.5908
rfemur -32.6088 -7.66686 21.2341
rtibia 36.7122
rfoot -26.456 3.49524
rtoes -10.5045
lfemur -32.211 4.14224 -22.3162
ltibia 35.0032
lfoot -20.2309 6.67032
ltoes -13.5736
721
root 0.205255 16.5334 -7.41607 19.8719 -2.34411 1.14637
lowerback -13.984 0.0731633 -4.75128
upperback -2.95886 0.764213 0.421164
thorax 4.63969 0.319457 3.26623
lowerneck -7.74126 -1.4955 -2.57661
upperneck 11.2659 -1.09331 -4.88664
head 4.64441 -0.940366 -1.15516
rclavicle 2.48481e-015 -2.68359e-015
rhumerus -92.1602 35.8855 -105.891
rradius 103.945
rwrist -70.4613
rhand 0.659213 -52.9712
rfingers 7.12502
rthumb 26.2216 -81.1797
lclavicle 2.48481e-015 -2.68359e-015
lhumerus -15.7798 35.5162 -14.7336
lradius 24.1596
lwrist -13.8945
lhand -25.4698 -13.2686
lfingers 7.12502
lthumb 1.05779 16.7086
rfemur -32.6379 -7.50478 21.1305
rtibia 36.6907
rfoot -26.4045 3.34283
rtoes -10.7814
lfemur -32.2365 4.18713 -22.3961
ltibia 34.9833
lfoot -20.1981 6.55436
ltoes -12.9401
722
root 0.208219 16.5347 -7.42292 19.7865 -2.21327 1.06813
lowerback -13.8652 0.0265452 -4.63888
upperback -2.85659 0.68246 0.421966
thorax 4.69189 0.277216 3.18825
lowerneck -7.88234 -1.48273 -2.52369
upperneck 11.2441 -1.06744 -4.96942
head 4.661 -0.931765 -1.18891
rclavicle 6.93883e-015 7.50412e-015
rhumerus -92.0312 36.0359 -105.934
rradius 103.925
rwrist -70.3975
rhand 0.775311 -52.9435
rfingers 7.12502
rthumb 26.3328 -81.1354
lclavicle 6.93883e-015 7.50412e-015
lhumerus -15.719 38.2596 -15.6165
lradius 22.8249
lwrist -16.4824
lhand -24.9726 -13.4744
lfingers 7.12502
lthumb 1.53799 16.4998
rfemur -32.5346 -7.66888 21.2498
rtibia 36.661
rfoot -26.4246 3.38827
rtoes -10.9221
lfemur -32.1673 4.14377 -22.288
ltibia 34.9738
lfoot -20.2258 6.52225
ltoes -12.9069
